<svg width="16" height="19" viewBox="0 0 16 19" fill="none" xmlns="http://www.w3.org/2000/svg">
<path d="M5.00312 1.12227L4.75 1.625H1.375C0.752734 1.625 0.25 2.12773 0.25 2.75C0.25 3.37227 0.752734 3.875 1.375 3.875H14.875C15.4973 3.875 16 3.37227 16 2.75C16 2.12773 15.4973 1.625 14.875 1.625H11.5L11.2469 1.12227C11.057 0.739063 10.6668 0.5 10.2414 0.5H6.00859C5.5832 0.5 5.19297 0.739063 5.00312 1.12227ZM14.875 5H1.375L2.12031 16.918C2.17656 17.8074 2.91484 18.5 3.8043 18.5H12.4457C13.3352 18.5 14.0734 17.8074 14.1297 16.918L14.875 5Z" fill="#EA5455"/>
</svg>
