<svg width="16" height="14" viewBox="0 0 16 14" fill="none" xmlns="http://www.w3.org/2000/svg">
<path d="M4.56104 13.7337H4.5608C4.08828 13.7337 3.63596 13.5475 3.30332 13.2149L0.770425 10.682C0.0765251 9.98806 0.0765252 8.86407 0.770425 8.17017L8.08377 0.856832H8.08693L8.16015 0.783608C8.85405 0.0897087 9.97804 0.0897087 10.6719 0.783608L15.019 5.1338L15.019 5.13386C15.7129 5.82776 15.7129 6.95175 15.019 7.64565L10.8809 11.7838L10.4541 12.2105H11.0577H14.9868C15.4092 12.2105 15.75 12.5514 15.75 12.9737C15.75 13.396 15.4092 13.7369 14.9868 13.7369H8.19234H7.89496H7.89473L4.56104 13.7337ZM8.19234 12.2105H8.2959L8.36912 12.1373L10.4999 10.0065L10.6767 9.82975L10.4999 9.65297L6.14967 5.30272L5.97289 5.12594L5.79611 5.30272L1.84796 9.25087L1.67118 9.42765L1.84796 9.60443L4.38086 12.1373L4.45408 12.2105H4.55763H7.89473H8.19234Z" fill="#B5B5B5" stroke="#151515" stroke-width="0.5"/>
</svg>
