<svg width="16" height="15" viewBox="0 0 16 15" fill="none" xmlns="http://www.w3.org/2000/svg">
<path d="M15.707 8.20638C16.0977 7.81574 16.0977 7.18133 15.707 6.79069L11.7068 2.79049C11.3162 2.39985 10.6818 2.39985 10.2911 2.79049C9.90048 3.18114 9.90048 3.81554 10.2911 4.20619L12.585 6.50005H6.00029C5.44714 6.50005 5.00024 6.94695 5.00024 7.5001C5.00024 8.05325 5.44714 8.50015 6.00029 8.50015H12.585L10.2911 10.794C9.90048 11.1847 9.90048 11.8191 10.2911 12.2097C10.6818 12.6003 11.3162 12.6003 11.7068 12.2097L15.707 8.20951V8.20638ZM5.00024 2.49985C5.5534 2.49985 6.00029 2.05296 6.00029 1.4998C6.00029 0.946653 5.5534 0.499756 5.00024 0.499756H3.00015C1.34382 0.499756 0 1.84357 0 3.4999V11.5003C0 13.1566 1.34382 14.5004 3.00015 14.5004H5.00024C5.5534 14.5004 6.00029 14.0535 6.00029 13.5004C6.00029 12.9472 5.5534 12.5003 5.00024 12.5003H3.00015C2.44699 12.5003 2.0001 12.0534 2.0001 11.5003V3.4999C2.0001 2.94675 2.44699 2.49985 3.00015 2.49985H5.00024Z" fill="#EA5455"/>
</svg>
