<svg width="26" height="26" viewBox="0 0 26 26" fill="none" xmlns="http://www.w3.org/2000/svg">
<path d="M25.2951 0.28451C25.808 0.639905 26.0771 1.25423 25.9806 1.86856L22.7306 22.9892C22.6544 23.4817 22.3548 23.9132 21.9181 24.1569C21.4813 24.4006 20.9583 24.4311 20.4962 24.2381L14.4226 21.7148L10.9441 25.4769C10.4921 25.9694 9.78115 26.1319 9.15653 25.8882C8.53191 25.6445 8.12565 25.0403 8.12565 24.3701V20.1257C8.12565 19.9226 8.20183 19.7297 8.33894 19.5774L16.85 10.2965C17.1445 9.97664 17.1344 9.48417 16.8297 9.17954C16.525 8.87492 16.0324 8.85461 15.7125 9.144L5.38342 18.3183L0.899371 16.0742C0.361081 15.8051 0.0157635 15.267 0.000528923 14.6679C-0.0147057 14.0688 0.300143 13.5103 0.81812 13.2107L23.5685 0.213431C24.1118 -0.0962702 24.7822 -0.0658078 25.2951 0.28451Z" fill="#4CC9F0"/>
</svg>
