<svg width="16" height="17" viewBox="0 0 16 17" fill="none" xmlns="http://www.w3.org/2000/svg">
<path d="M5.85 12.65V12.5V11.5C5.85 11.1577 5.64291 10.8466 5.32356 10.7135C5.0055 10.581 4.64166 10.6547 4.3964 10.897C4.39631 10.8971 4.39621 10.8972 4.39611 10.8973L2.39669 12.8967C2.06464 13.2288 2.06464 13.7682 2.39669 14.1002L4.39669 16.1002C4.64116 16.3447 5.0046 16.4163 5.32356 16.2835C5.64316 16.1503 5.85 15.8421 5.85 15.4969V14.4969V14.3469H6H11C13.6797 14.3469 15.85 12.1766 15.85 9.49691H16C15.9983 8.94523 15.5521 8.50004 15 8.50004C14.4469 8.50004 14 8.94691 14 9.50004C14 11.1563 12.6562 12.5 11 12.5H6.15H6V12.35V11.5C6 11.0969 5.75625 10.7313 5.38125 10.575C5.00625 10.4188 4.57812 10.5063 4.29063 10.7907L2.29063 12.7907C1.9 13.1813 1.9 13.8157 2.29063 14.2063L4.29063 16.2063C4.57812 16.4938 5.00625 16.5782 5.38125 16.4219C5.75625 16.2657 6 15.9032 6 15.4969L5.85 12.65ZM5.85 12.65H6H11C12.7391 12.65 14.15 11.2391 14.15 9.50004C14.15 9.02976 14.5297 8.65004 15 8.65004C15.4703 8.65004 15.85 9.02976 15.85 9.50004H16L5.85 12.65ZM10.15 4.50004V4.35004H10H5C3.26091 4.35004 1.85 5.76095 1.85 7.50004C1.85 7.97032 1.47028 8.35004 1 8.35004C0.529718 8.35004 0.15 7.97032 0.15 7.50004C0.15 4.82038 2.32034 2.65004 5 2.65004H10H10.15V2.50004V1.50004C10.15 1.15827 10.3566 0.849896 10.6764 0.716625C10.9954 0.583727 11.3588 0.655383 11.6033 0.899854L13.6033 2.89985C13.9354 3.2319 13.9354 3.7713 13.6033 4.10335L11.6039 6.10277C11.6038 6.10285 11.6037 6.10294 11.6036 6.10302C11.3584 6.34541 10.9945 6.41911 10.6764 6.28658C10.3571 6.15351 10.15 5.84234 10.15 5.50004V4.50004Z" fill="#FAFAFA" stroke="#151515" stroke-width="0.3"/>
</svg>
