<svg width="70" height="30" viewBox="0 0 70 30" fill="none" xmlns="http://www.w3.org/2000/svg">
<g filter="url(#filter0_i_138_5653)">
<rect width="70" height="30" rx="15" fill="#FAFAFA"/>
<circle cx="15" cy="15" r="13" fill="#151515"/>
<path d="M41.2207 9.42578V12.6953H42.6621V13.9141H41.2207V17.3828H39.7207V9.42578H41.2207ZM39.0879 10.5391V11.7227H32.7598V10.5391H35.1855V9.40234H36.6738V10.5391H39.0879ZM35.9238 12.0977C37.4707 12.0977 38.5488 12.9297 38.5488 14.1602C38.5488 15.3906 37.4707 16.1992 35.9238 16.1992C34.3652 16.1992 33.2754 15.3906 33.2754 14.1602C33.2754 12.9297 34.3652 12.0977 35.9238 12.0977ZM35.9238 13.2344C35.209 13.2461 34.7285 13.5742 34.7402 14.1602C34.7285 14.7461 35.209 15.0625 35.9238 15.0625C36.6387 15.0625 37.1309 14.7461 37.1309 14.1602C37.1309 13.5742 36.6387 13.2461 35.9238 13.2344ZM41.6074 18.6953V19.8906H34.3066V16.7734H35.7949V18.6953H41.6074ZM51.7324 9.88281V10.7148C51.7324 11.5 51.7324 12.4023 51.5215 13.5508H52.8926V14.7461H48.7441V16.2812H51.7441V20.0781H50.2441V17.4531H44.1152V16.2812H47.2441V14.7461H43.1309V13.5508H50.0098C50.209 12.5547 50.2383 11.7695 50.2441 11.0664H44.3262V9.88281H51.7324ZM56.4434 10.1641C57.8848 10.1641 58.957 11.3535 59.1738 13.2695H61.0254V9.41406H62.502V20.1016H61.0254V14.4648H59.1855C59.0273 16.5156 57.9316 17.7695 56.4434 17.7695C54.8262 17.7695 53.666 16.3047 53.6777 13.9609C53.666 11.6406 54.8262 10.1641 56.4434 10.1641ZM56.4434 11.5117C55.6465 11.5117 55.0957 12.3789 55.1074 13.9609C55.0957 15.5547 55.6465 16.4102 56.4434 16.4102C57.252 16.4102 57.7793 15.5547 57.7793 13.9609C57.7793 12.3789 57.252 11.5117 56.4434 11.5117Z" fill="#151515"/>
</g>
<defs>
<filter id="filter0_i_138_5653" x="0" y="0" width="70" height="32" filterUnits="userSpaceOnUse" color-interpolation-filters="sRGB">
<feFlood flood-opacity="0" result="BackgroundImageFix"/>
<feBlend mode="normal" in="SourceGraphic" in2="BackgroundImageFix" result="shape"/>
<feColorMatrix in="SourceAlpha" type="matrix" values="0 0 0 0 0 0 0 0 0 0 0 0 0 0 0 0 0 0 127 0" result="hardAlpha"/>
<feOffset dy="2"/>
<feGaussianBlur stdDeviation="2"/>
<feComposite in2="hardAlpha" operator="arithmetic" k2="-1" k3="1"/>
<feColorMatrix type="matrix" values="0 0 0 0 0 0 0 0 0 0 0 0 0 0 0 0 0 0 0.4 0"/>
<feBlend mode="normal" in2="shape" result="effect1_innerShadow_138_5653"/>
</filter>
</defs>
</svg>
