<svg width="18" height="16" viewBox="0 0 18 16" fill="none" xmlns="http://www.w3.org/2000/svg">
<path d="M5.66082 15.3171C12.4536 15.3171 16.1683 9.68746 16.1683 4.80565C16.1683 4.64578 16.1651 4.48663 16.1579 4.32814C16.8807 3.80494 17.5045 3.15713 18 2.41509C17.3383 2.70939 16.6262 2.90746 15.8792 2.99676C16.6417 2.53941 17.227 1.81586 17.5032 0.953398C16.7783 1.3836 15.9852 1.68688 15.1582 1.85014C14.4843 1.13204 13.5248 0.682922 12.4625 0.682922C10.4231 0.682922 8.76926 2.33739 8.76926 4.37676C8.76926 4.6667 8.80171 4.94863 8.86507 5.21914C5.79574 5.06464 3.07409 3.59457 1.25261 1.35924C0.924545 1.92303 0.751988 2.5638 0.752561 3.21609C0.752561 4.49782 1.40451 5.6293 2.39598 6.29128C1.80951 6.27336 1.23592 6.11489 0.723439 5.8292C0.72289 5.84472 0.72289 5.85983 0.72289 5.8764C0.72289 7.66553 1.99584 9.15935 3.68565 9.49784C3.36828 9.5843 3.04079 9.62802 2.71185 9.62783C2.4743 9.62783 2.24279 9.60445 2.01779 9.56124C2.48795 11.0291 3.85127 12.0973 5.46765 12.1272C4.20366 13.1182 2.61143 13.7085 0.880902 13.7085C0.586518 13.7088 0.292374 13.6917 0 13.6573C1.63441 14.7053 3.57512 15.3168 5.661 15.3168" fill="white"/>
</svg>
