<svg width="116" height="62" viewBox="0 0 116 62" fill="none" xmlns="http://www.w3.org/2000/svg">
<rect x="1" width="115" height="60" fill="#151515"/>
<g filter="url(#filter0_f_208_6944)">
<path fill-rule="evenodd" clip-rule="evenodd" d="M25.8352 51.2956L10.7998 23.4419V42.011L25.8352 51.2956Z" fill="#4CC9F0"/>
</g>
<path fill-rule="evenodd" clip-rule="evenodd" d="M25.8352 51.2975L10.7998 23.4438V42.013L25.8352 51.2975Z" fill="#4CC9F0"/>
<path fill-rule="evenodd" clip-rule="evenodd" d="M20.7949 33.027L45.3421 17.8687L29.3608 8L12.8042 18.2239L20.7949 33.027Z" fill="#FAFAFA"/>
<g filter="url(#filter1_i_208_6944)">
<path fill-rule="evenodd" clip-rule="evenodd" d="M20.7949 33.0269L20.8152 33.0645L45.3827 17.8937L45.3421 17.8687L20.7949 33.0269ZM31.0368 52.0003L22.8203 36.779L47.5933 21.4812V41.7764L31.0368 52.0003Z" fill="#FAFAFA"/>
</g>
<path fill-rule="evenodd" clip-rule="evenodd" d="M12.2196 18.7104L12.8808 18.3021L20.8207 33.0111L45.7147 17.6387L47.6658 21.2531L22.7718 36.6255L31.0709 52H45.8781V60H27.179V58.8541L23.8891 57.7578L25.8072 51.1733L10.8637 23.4898L2.09941 21.6797L2.22212 21H1.93506L1.93506 5H12.2196V10.7795L21.2034 5.23187L24.3271 11.0186L12.2196 18.4951V18.7104Z" fill="#151515"/>
<path fill-rule="evenodd" clip-rule="evenodd" d="M71.3 13.8994V16.4174H62.8998V19.6406H71.3V22.1586H62.8998V28H59.2998V14H59.3V13.8994H71.3Z" fill="#4CC9F0"/>
<path d="M73.2266 28V13.8594H76.1562V25.5781H82.25V28H73.2266ZM87.0742 13.8594V28H84.1445V13.8594H87.0742ZM98.9102 18.7812C98.6758 17.2188 97.4648 16.2617 95.8242 16.2617C93.6172 16.2617 92.1719 17.9609 92.1719 20.9297C92.1719 23.9766 93.6367 25.5977 95.8047 25.5977C97.4258 25.5977 98.6172 24.6992 98.9102 23.1758L101.879 23.1953C101.547 25.8125 99.3594 28.1953 95.7656 28.1953C91.9766 28.1953 89.1836 25.5391 89.1836 20.9297C89.1836 16.3203 92.0352 13.6641 95.7656 13.6641C99.0273 13.6641 101.488 15.5391 101.879 18.7812H98.9102ZM103.93 28V13.8594H106.859V20.1289H107.055L112.191 13.8594H115.727L110.453 20.1875L115.785 28H112.27L108.344 22.1602L106.859 23.957V28H103.93Z" fill="#4CC9F0"/>
<path d="M68.207 38.7812C67.9727 37.2188 66.7617 36.2617 65.1211 36.2617C62.9141 36.2617 61.4688 37.9609 61.4688 40.9297C61.4688 43.9766 62.9336 45.5977 65.1016 45.5977C66.7227 45.5977 67.9141 44.6992 68.207 43.1758L71.1758 43.1953C70.8438 45.8125 68.6562 48.1953 65.0625 48.1953C61.2734 48.1953 58.4805 45.5391 58.4805 40.9297C58.4805 36.3203 61.332 33.6641 65.0625 33.6641C68.3242 33.6641 70.7852 35.5391 71.1758 38.7812H68.207ZM73.2266 48V33.8594H76.1562V45.5781H82.25V48H73.2266ZM87.0742 33.8594V48H84.1445V33.8594H87.0742ZM98.9102 38.7812C98.6758 37.2188 97.4648 36.2617 95.8242 36.2617C93.6172 36.2617 92.1719 37.9609 92.1719 40.9297C92.1719 43.9766 93.6367 45.5977 95.8047 45.5977C97.4258 45.5977 98.6172 44.6992 98.9102 43.1758L101.879 43.1953C101.547 45.8125 99.3594 48.1953 95.7656 48.1953C91.9766 48.1953 89.1836 45.5391 89.1836 40.9297C89.1836 36.3203 92.0352 33.6641 95.7656 33.6641C99.0273 33.6641 101.488 35.5391 101.879 38.7812H98.9102ZM103.93 48V33.8594H106.859V40.1289H107.055L112.191 33.8594H115.727L110.453 40.1875L115.785 48H112.27L108.344 42.1602L106.859 43.957V48H103.93Z" fill="#FAFAFA"/>
<defs>
<filter id="filter0_f_208_6944" x="0.799805" y="13.4419" width="35.0352" height="47.8535" filterUnits="userSpaceOnUse" color-interpolation-filters="sRGB">
<feFlood flood-opacity="0" result="BackgroundImageFix"/>
<feBlend mode="normal" in="SourceGraphic" in2="BackgroundImageFix" result="shape"/>
<feGaussianBlur stdDeviation="5" result="effect1_foregroundBlur_208_6944"/>
</filter>
<filter id="filter1_i_208_6944" x="20.7949" y="17.8687" width="26.7983" height="38.1318" filterUnits="userSpaceOnUse" color-interpolation-filters="sRGB">
<feFlood flood-opacity="0" result="BackgroundImageFix"/>
<feBlend mode="normal" in="SourceGraphic" in2="BackgroundImageFix" result="shape"/>
<feColorMatrix in="SourceAlpha" type="matrix" values="0 0 0 0 0 0 0 0 0 0 0 0 0 0 0 0 0 0 127 0" result="hardAlpha"/>
<feOffset dy="4"/>
<feGaussianBlur stdDeviation="2"/>
<feComposite in2="hardAlpha" operator="arithmetic" k2="-1" k3="1"/>
<feColorMatrix type="matrix" values="0 0 0 0 0 0 0 0 0 0 0 0 0 0 0 0 0 0 0.3 0"/>
<feBlend mode="normal" in2="shape" result="effect1_innerShadow_208_6944"/>
</filter>
</defs>
</svg>
