<svg width="40" height="40" viewBox="0 0 40 40" fill="none" xmlns="http://www.w3.org/2000/svg">
<path fill-rule="evenodd" clip-rule="evenodd" d="M20 40C31.0457 40 40 31.0457 40 20C40 8.9543 31.0457 0 20 0C8.9543 0 0 8.9543 0 20C0 31.0457 8.9543 40 20 40ZM20 37.3333C29.5729 37.3333 37.3333 29.5729 37.3333 20C37.3333 10.4271 29.5729 2.66667 20 2.66667C10.4271 2.66667 2.66667 10.4271 2.66667 20C2.66667 29.5729 10.4271 37.3333 20 37.3333Z" fill="#FAFAFA"/>
<path fill-rule="evenodd" clip-rule="evenodd" d="M22.245 22.3567H17.7539C17.7539 22.3567 17.7538 22.3567 17.7537 22.3567C15.2734 22.3566 13.2627 20.31 13.2627 17.7853C13.2627 15.2606 15.2734 13.214 17.7537 13.2139C17.7538 13.2139 17.7539 13.2139 17.7539 13.2139H22.245C24.7254 13.2139 26.7362 15.2606 26.7362 17.7853C26.7362 20.31 24.7254 22.3567 22.245 22.3567Z" fill="#FAFAFA"/>
<path fill-rule="evenodd" clip-rule="evenodd" d="M28 28.0721H12C12 28.0719 12 28.0716 12 28.0714C12 25.5468 14.0466 23.5001 16.5712 23.5H16.5714H23.4284H23.4285C25.9533 23.5 28 25.5467 28 28.0714C28 28.0716 28 28.0719 28 28.0721Z" fill="#FAFAFA"/>
<circle cx="17.7636" cy="17.9326" r="1.42477" fill="#4CC9F0"/>
<circle cx="22.645" cy="17.9326" r="1.42477" fill="#4CC9F0"/>
<path fill-rule="evenodd" clip-rule="evenodd" d="M20.4066 11.5806C20.7223 11.4688 20.9484 11.1676 20.9484 10.8136C20.9484 10.3642 20.5842 10 20.1348 10C19.6855 10 19.3213 10.3642 19.3213 10.8136C19.3213 11.168 19.548 11.4695 19.8643 11.581V13.2151H20.4066V11.5806Z" fill="#FAFAFA"/>
</svg>
